<svg width="1024" height="1024" viewBox="0 0 1024 1024" fill="none" xmlns="http://www.w3.org/2000/svg">
<g clip-path="url(#clip0_21_11)">
<rect width="1024" height="1024" rx="156" fill="black"/>
<g filter="url(#filter0_i_21_11)">
<path d="M341.102 349.066C373.491 349.066 400.184 352.973 421.18 360.785C442.339 368.598 458.045 380.398 468.299 396.186C478.553 411.973 483.68 431.911 483.68 456C483.68 472.276 480.587 486.518 474.402 498.725C468.217 510.932 460.079 521.267 449.988 529.73C439.897 538.194 428.992 545.111 417.273 550.482L522.254 706H438.27L353.064 569.037H312.781V706H237.098V349.066H341.102ZM335.73 411.078H312.781V507.514H337.195C362.26 507.514 380.164 503.363 390.906 495.062C401.811 486.599 407.264 474.229 407.264 457.953C407.264 441.026 401.404 428.982 389.686 421.82C378.13 414.659 360.145 411.078 335.73 411.078ZM809.363 569.037C809.363 591.824 806.271 612.006 800.086 629.584C794.064 647.162 785.193 662.055 773.475 674.262C761.919 686.306 747.921 695.421 731.482 701.605C715.206 707.79 696.814 710.883 676.307 710.883C657.101 710.883 639.441 707.79 623.328 701.605C607.378 695.421 593.462 686.306 581.58 674.262C569.861 662.055 560.747 647.162 554.236 629.584C547.889 612.006 544.715 591.824 544.715 569.037C544.715 538.764 550.086 513.129 560.828 492.133C571.57 471.137 586.87 455.186 606.727 444.281C626.583 433.376 650.265 427.924 677.771 427.924C703.325 427.924 725.949 433.376 745.643 444.281C765.499 455.186 781.043 471.137 792.273 492.133C803.667 513.129 809.363 538.764 809.363 569.037ZM620.643 569.037C620.643 586.941 622.596 601.996 626.502 614.203C630.408 626.41 636.512 635.606 644.812 641.791C653.113 647.976 663.937 651.068 677.283 651.068C690.467 651.068 701.128 647.976 709.266 641.791C717.566 635.606 723.589 626.41 727.332 614.203C731.238 601.996 733.191 586.941 733.191 569.037C733.191 550.971 731.238 535.997 727.332 524.115C723.589 512.071 717.566 503.038 709.266 497.016C700.965 490.993 690.141 487.982 676.795 487.982C657.101 487.982 642.778 494.737 633.826 508.246C625.037 521.755 620.643 542.019 620.643 569.037Z" fill="white"/>
</g>
</g>
<defs>
<filter id="filter0_i_21_11" x="237.098" y="349.066" width="572.266" height="365.816" filterUnits="userSpaceOnUse" color-interpolation-filters="sRGB">
<feFlood flood-opacity="0" result="BackgroundImageFix"/>
<feBlend mode="normal" in="SourceGraphic" in2="BackgroundImageFix" result="shape"/>
<feColorMatrix in="SourceAlpha" type="matrix" values="0 0 0 0 0 0 0 0 0 0 0 0 0 0 0 0 0 0 127 0" result="hardAlpha"/>
<feOffset dy="4"/>
<feGaussianBlur stdDeviation="2"/>
<feComposite in2="hardAlpha" operator="arithmetic" k2="-1" k3="1"/>
<feColorMatrix type="matrix" values="0 0 0 0 0 0 0 0 0 0 0 0 0 0 0 0 0 0 0.25 0"/>
<feBlend mode="normal" in2="shape" result="effect1_innerShadow_21_11"/>
</filter>
<clipPath id="clip0_21_11">
<rect width="1024" height="1024" fill="white"/>
</clipPath>
</defs>
</svg>
