<svg width="2200" height="828" viewBox="0 0 2200 828" fill="none" xmlns="http://www.w3.org/2000/svg">
<g clip-path="url(#clip0_4_4)">
<rect width="2200" height="828" fill="white"/>
<rect width="2200" height="1024" fill="white"/>
<g filter="url(#filter0_i_4_4)">
<path d="M247.217 250.066C279.606 250.066 306.299 253.973 327.295 261.785C348.454 269.598 364.16 281.398 374.414 297.186C384.668 312.973 389.795 332.911 389.795 357C389.795 373.276 386.702 387.518 380.518 399.725C374.333 411.932 366.195 422.267 356.104 430.73C346.012 439.194 335.107 446.111 323.389 451.482L428.369 607H344.385L259.18 470.037H218.896V607H143.213V250.066H247.217ZM241.846 312.078H218.896V408.514H243.311C268.376 408.514 286.279 404.363 297.021 396.062C307.926 387.599 313.379 375.229 313.379 358.953C313.379 342.026 307.52 329.982 295.801 322.82C284.245 315.659 266.26 312.078 241.846 312.078ZM715.479 470.037C715.479 492.824 712.386 513.006 706.201 530.584C700.179 548.162 691.309 563.055 679.59 575.262C668.034 587.306 654.036 596.421 637.598 602.605C621.322 608.79 602.93 611.883 582.422 611.883C563.216 611.883 545.557 608.79 529.443 602.605C513.493 596.421 499.577 587.306 487.695 575.262C475.977 563.055 466.862 548.162 460.352 530.584C454.004 513.006 450.83 492.824 450.83 470.037C450.83 439.764 456.201 414.129 466.943 393.133C477.686 372.137 492.985 356.186 512.842 345.281C532.699 334.376 556.38 328.924 583.887 328.924C609.44 328.924 632.064 334.376 651.758 345.281C671.615 356.186 687.158 372.137 698.389 393.133C709.782 414.129 715.479 439.764 715.479 470.037ZM526.758 470.037C526.758 487.941 528.711 502.996 532.617 515.203C536.523 527.41 542.627 536.606 550.928 542.791C559.229 548.976 570.052 552.068 583.398 552.068C596.582 552.068 607.243 548.976 615.381 542.791C623.682 536.606 629.704 527.41 633.447 515.203C637.354 502.996 639.307 487.941 639.307 470.037C639.307 451.971 637.354 436.997 633.447 425.115C629.704 413.071 623.682 404.038 615.381 398.016C607.08 391.993 596.257 388.982 582.91 388.982C563.216 388.982 548.893 395.737 539.941 409.246C531.152 422.755 526.758 443.019 526.758 470.037ZM1097.56 328.924C1128.48 328.924 1151.84 336.899 1167.63 352.85C1183.58 368.637 1191.55 394.028 1191.55 429.021V607H1116.85V447.576C1116.85 428.045 1113.51 413.315 1106.84 403.387C1100.16 393.458 1089.83 388.494 1075.83 388.494C1056.14 388.494 1042.14 395.574 1033.84 409.734C1025.54 423.732 1021.39 443.833 1021.39 470.037V607H946.924V447.576C946.924 434.555 945.459 423.65 942.529 414.861C939.6 406.072 935.124 399.48 929.102 395.086C923.079 390.691 915.348 388.494 905.908 388.494C892.074 388.494 881.169 391.993 873.193 398.992C865.381 405.828 859.766 416.001 856.348 429.51C853.092 442.856 851.465 459.214 851.465 478.582V607H777.002V334.051H833.887L843.896 368.963H848.047C853.581 359.523 860.498 351.873 868.799 346.014C877.262 340.154 886.54 335.841 896.631 333.074C906.722 330.307 916.976 328.924 927.393 328.924C947.412 328.924 964.339 332.179 978.174 338.689C992.171 345.2 1002.91 355.291 1010.4 368.963H1016.99C1025.13 354.965 1036.6 344.793 1051.42 338.445C1066.39 332.098 1081.77 328.924 1097.56 328.924ZM1380.76 328.924C1405.99 328.924 1427.72 333.807 1445.95 343.572C1464.18 353.175 1478.26 367.173 1488.18 385.564C1498.11 403.956 1503.08 426.417 1503.08 452.947V489.08H1327.05C1327.86 510.076 1334.13 526.596 1345.85 538.641C1357.73 550.522 1374.17 556.463 1395.17 556.463C1412.58 556.463 1428.53 554.673 1443.02 551.092C1457.5 547.511 1472.4 542.14 1487.7 534.979V592.596C1474.19 599.269 1460.03 604.152 1445.21 607.244C1430.57 610.337 1412.74 611.883 1391.75 611.883C1364.4 611.883 1340.15 606.837 1318.99 596.746C1298 586.655 1281.48 571.274 1269.43 550.604C1257.55 529.933 1251.61 503.891 1251.61 472.479C1251.61 440.577 1256.98 414.048 1267.72 392.889C1278.63 371.567 1293.77 355.617 1313.13 345.037C1332.5 334.295 1355.05 328.924 1380.76 328.924ZM1381.25 381.902C1366.76 381.902 1354.72 386.541 1345.12 395.818C1335.68 405.096 1330.22 419.663 1328.76 439.52H1433.25C1433.09 428.452 1431.05 418.605 1427.15 409.979C1423.4 401.352 1417.71 394.516 1410.06 389.471C1402.57 384.425 1392.97 381.902 1381.25 381.902ZM1718.65 328.924C1747.79 328.924 1771.22 336.899 1788.96 352.85C1806.71 368.637 1815.58 394.028 1815.58 429.021V607H1741.11V447.576C1741.11 428.045 1737.53 413.315 1730.37 403.387C1723.37 393.458 1712.3 388.494 1697.17 388.494C1674.38 388.494 1658.84 396.225 1650.54 411.688C1642.24 427.15 1638.09 449.448 1638.09 478.582V607H1563.62V334.051H1620.51L1630.52 368.963H1634.67C1640.53 359.523 1647.77 351.873 1656.4 346.014C1665.19 340.154 1674.87 335.841 1685.45 333.074C1696.19 330.307 1707.26 328.924 1718.65 328.924ZM2082.67 525.945C2082.67 544.5 2078.27 560.206 2069.48 573.064C2060.86 585.76 2047.92 595.444 2030.66 602.117C2013.41 608.628 1991.93 611.883 1966.21 611.883C1947.17 611.883 1930.81 610.662 1917.14 608.221C1903.63 605.779 1889.96 601.71 1876.12 596.014V534.49C1890.93 541.163 1906.8 546.697 1923.73 551.092C1940.82 555.324 1955.79 557.439 1968.65 557.439C1983.14 557.439 1993.47 555.324 1999.66 551.092C2006.01 546.697 2009.18 541.001 2009.18 534.002C2009.18 529.445 2007.88 525.376 2005.27 521.795C2002.83 518.051 1997.46 513.901 1989.16 509.344C1980.86 504.624 1967.84 498.52 1950.1 491.033C1933.01 483.872 1918.93 476.629 1907.86 469.305C1896.96 461.98 1888.82 453.354 1883.45 443.426C1878.24 433.335 1875.63 420.558 1875.63 405.096C1875.63 379.868 1885.4 360.906 1904.93 348.211C1924.63 335.353 1950.91 328.924 1983.79 328.924C2000.72 328.924 2016.83 330.633 2032.13 334.051C2047.59 337.469 2063.46 342.921 2079.74 350.408L2057.28 404.119C2043.77 398.26 2030.99 393.458 2018.95 389.715C2007.06 385.971 1994.94 384.1 1982.57 384.1C1971.66 384.1 1963.44 385.564 1957.91 388.494C1952.38 391.424 1949.61 395.9 1949.61 401.922C1949.61 406.316 1950.99 410.223 1953.76 413.641C1956.69 417.059 1962.22 420.883 1970.36 425.115C1978.66 429.184 1990.79 434.474 2006.74 440.984C2022.2 447.332 2035.63 454.005 2047.02 461.004C2058.41 467.84 2067.2 476.385 2073.39 486.639C2079.57 496.73 2082.67 509.832 2082.67 525.945Z" fill="black"/>
</g>
</g>
<defs>
<filter id="filter0_i_4_4" x="143.213" y="250.066" width="1939.45" height="365.816" filterUnits="userSpaceOnUse" color-interpolation-filters="sRGB">
<feFlood flood-opacity="0" result="BackgroundImageFix"/>
<feBlend mode="normal" in="SourceGraphic" in2="BackgroundImageFix" result="shape"/>
<feColorMatrix in="SourceAlpha" type="matrix" values="0 0 0 0 0 0 0 0 0 0 0 0 0 0 0 0 0 0 127 0" result="hardAlpha"/>
<feOffset dy="4"/>
<feGaussianBlur stdDeviation="2"/>
<feComposite in2="hardAlpha" operator="arithmetic" k2="-1" k3="1"/>
<feColorMatrix type="matrix" values="0 0 0 0 0 0 0 0 0 0 0 0 0 0 0 0 0 0 0.25 0"/>
<feBlend mode="normal" in2="shape" result="effect1_innerShadow_4_4"/>
</filter>
<clipPath id="clip0_4_4">
<rect width="2200" height="828" fill="white"/>
</clipPath>
</defs>
</svg>
