<svg width="2200" height="828" viewBox="0 0 2200 828" fill="none" xmlns="http://www.w3.org/2000/svg">
<g clip-path="url(#clip0_1_7)" filter="url(#filter0_i_1_7)">
<rect width="2200" height="828" fill="white"/>
<g clip-path="url(#clip1_1_7)">
<rect width="2200" height="828" fill="#0F85FF"/>
<g filter="url(#filter1_i_1_7)">
<path d="M247.217 251.066C279.606 251.066 306.299 254.973 327.295 262.785C348.454 270.598 364.16 282.398 374.414 298.186C384.668 313.973 389.795 333.911 389.795 358C389.795 374.276 386.702 388.518 380.518 400.725C374.333 412.932 366.195 423.267 356.104 431.73C346.012 440.194 335.107 447.111 323.389 452.482L428.369 608H344.385L259.18 471.037H218.896V608H143.213V251.066H247.217ZM241.846 313.078H218.896V409.514H243.311C268.376 409.514 286.279 405.363 297.021 397.062C307.926 388.599 313.379 376.229 313.379 359.953C313.379 343.026 307.52 330.982 295.801 323.82C284.245 316.659 266.26 313.078 241.846 313.078ZM715.479 471.037C715.479 493.824 712.386 514.006 706.201 531.584C700.179 549.162 691.309 564.055 679.59 576.262C668.034 588.306 654.036 597.421 637.598 603.605C621.322 609.79 602.93 612.883 582.422 612.883C563.216 612.883 545.557 609.79 529.443 603.605C513.493 597.421 499.577 588.306 487.695 576.262C475.977 564.055 466.862 549.162 460.352 531.584C454.004 514.006 450.83 493.824 450.83 471.037C450.83 440.764 456.201 415.129 466.943 394.133C477.686 373.137 492.985 357.186 512.842 346.281C532.699 335.376 556.38 329.924 583.887 329.924C609.44 329.924 632.064 335.376 651.758 346.281C671.615 357.186 687.158 373.137 698.389 394.133C709.782 415.129 715.479 440.764 715.479 471.037ZM526.758 471.037C526.758 488.941 528.711 503.996 532.617 516.203C536.523 528.41 542.627 537.606 550.928 543.791C559.229 549.976 570.052 553.068 583.398 553.068C596.582 553.068 607.243 549.976 615.381 543.791C623.682 537.606 629.704 528.41 633.447 516.203C637.354 503.996 639.307 488.941 639.307 471.037C639.307 452.971 637.354 437.997 633.447 426.115C629.704 414.071 623.682 405.038 615.381 399.016C607.08 392.993 596.257 389.982 582.91 389.982C563.216 389.982 548.893 396.737 539.941 410.246C531.152 423.755 526.758 444.019 526.758 471.037ZM1097.56 329.924C1128.48 329.924 1151.84 337.899 1167.63 353.85C1183.58 369.637 1191.55 395.028 1191.55 430.021V608H1116.85V448.576C1116.85 429.045 1113.51 414.315 1106.84 404.387C1100.16 394.458 1089.83 389.494 1075.83 389.494C1056.14 389.494 1042.14 396.574 1033.84 410.734C1025.54 424.732 1021.39 444.833 1021.39 471.037V608H946.924V448.576C946.924 435.555 945.459 424.65 942.529 415.861C939.6 407.072 935.124 400.48 929.102 396.086C923.079 391.691 915.348 389.494 905.908 389.494C892.074 389.494 881.169 392.993 873.193 399.992C865.381 406.828 859.766 417.001 856.348 430.51C853.092 443.856 851.465 460.214 851.465 479.582V608H777.002V335.051H833.887L843.896 369.963H848.047C853.581 360.523 860.498 352.873 868.799 347.014C877.262 341.154 886.54 336.841 896.631 334.074C906.722 331.307 916.976 329.924 927.393 329.924C947.412 329.924 964.339 333.179 978.174 339.689C992.171 346.2 1002.91 356.291 1010.4 369.963H1016.99C1025.13 355.965 1036.6 345.793 1051.42 339.445C1066.39 333.098 1081.77 329.924 1097.56 329.924ZM1380.76 329.924C1405.99 329.924 1427.72 334.807 1445.95 344.572C1464.18 354.175 1478.26 368.173 1488.18 386.564C1498.11 404.956 1503.08 427.417 1503.08 453.947V490.08H1327.05C1327.86 511.076 1334.13 527.596 1345.85 539.641C1357.73 551.522 1374.17 557.463 1395.17 557.463C1412.58 557.463 1428.53 555.673 1443.02 552.092C1457.5 548.511 1472.4 543.14 1487.7 535.979V593.596C1474.19 600.269 1460.03 605.152 1445.21 608.244C1430.57 611.337 1412.74 612.883 1391.75 612.883C1364.4 612.883 1340.15 607.837 1318.99 597.746C1298 587.655 1281.48 572.274 1269.43 551.604C1257.55 530.933 1251.61 504.891 1251.61 473.479C1251.61 441.577 1256.98 415.048 1267.72 393.889C1278.63 372.567 1293.77 356.617 1313.13 346.037C1332.5 335.295 1355.05 329.924 1380.76 329.924ZM1381.25 382.902C1366.76 382.902 1354.72 387.541 1345.12 396.818C1335.68 406.096 1330.22 420.663 1328.76 440.52H1433.25C1433.09 429.452 1431.05 419.605 1427.15 410.979C1423.4 402.352 1417.71 395.516 1410.06 390.471C1402.57 385.425 1392.97 382.902 1381.25 382.902ZM1718.65 329.924C1747.79 329.924 1771.22 337.899 1788.96 353.85C1806.71 369.637 1815.58 395.028 1815.58 430.021V608H1741.11V448.576C1741.11 429.045 1737.53 414.315 1730.37 404.387C1723.37 394.458 1712.3 389.494 1697.17 389.494C1674.38 389.494 1658.84 397.225 1650.54 412.688C1642.24 428.15 1638.09 450.448 1638.09 479.582V608H1563.62V335.051H1620.51L1630.52 369.963H1634.67C1640.53 360.523 1647.77 352.873 1656.4 347.014C1665.19 341.154 1674.87 336.841 1685.45 334.074C1696.19 331.307 1707.26 329.924 1718.65 329.924ZM2082.67 526.945C2082.67 545.5 2078.27 561.206 2069.48 574.064C2060.86 586.76 2047.92 596.444 2030.66 603.117C2013.41 609.628 1991.93 612.883 1966.21 612.883C1947.17 612.883 1930.81 611.662 1917.14 609.221C1903.63 606.779 1889.96 602.71 1876.12 597.014V535.49C1890.93 542.163 1906.8 547.697 1923.73 552.092C1940.82 556.324 1955.79 558.439 1968.65 558.439C1983.14 558.439 1993.47 556.324 1999.66 552.092C2006.01 547.697 2009.18 542.001 2009.18 535.002C2009.18 530.445 2007.88 526.376 2005.27 522.795C2002.83 519.051 1997.46 514.901 1989.16 510.344C1980.86 505.624 1967.84 499.52 1950.1 492.033C1933.01 484.872 1918.93 477.629 1907.86 470.305C1896.96 462.98 1888.82 454.354 1883.45 444.426C1878.24 434.335 1875.63 421.558 1875.63 406.096C1875.63 380.868 1885.4 361.906 1904.93 349.211C1924.63 336.353 1950.91 329.924 1983.79 329.924C2000.72 329.924 2016.83 331.633 2032.13 335.051C2047.59 338.469 2063.46 343.921 2079.74 351.408L2057.28 405.119C2043.77 399.26 2030.99 394.458 2018.95 390.715C2007.06 386.971 1994.94 385.1 1982.57 385.1C1971.66 385.1 1963.44 386.564 1957.91 389.494C1952.38 392.424 1949.61 396.9 1949.61 402.922C1949.61 407.316 1950.99 411.223 1953.76 414.641C1956.69 418.059 1962.22 421.883 1970.36 426.115C1978.66 430.184 1990.79 435.474 2006.74 441.984C2022.2 448.332 2035.63 455.005 2047.02 462.004C2058.41 468.84 2067.2 477.385 2073.39 487.639C2079.57 497.73 2082.67 510.832 2082.67 526.945Z" fill="white"/>
</g>
</g>
</g>
<defs>
<filter id="filter0_i_1_7" x="0" y="0" width="2200" height="832" filterUnits="userSpaceOnUse" color-interpolation-filters="sRGB">
<feFlood flood-opacity="0" result="BackgroundImageFix"/>
<feBlend mode="normal" in="SourceGraphic" in2="BackgroundImageFix" result="shape"/>
<feColorMatrix in="SourceAlpha" type="matrix" values="0 0 0 0 0 0 0 0 0 0 0 0 0 0 0 0 0 0 127 0" result="hardAlpha"/>
<feOffset dy="4"/>
<feGaussianBlur stdDeviation="2"/>
<feComposite in2="hardAlpha" operator="arithmetic" k2="-1" k3="1"/>
<feColorMatrix type="matrix" values="0 0 0 0 0 0 0 0 0 0 0 0 0 0 0 0 0 0 0.25 0"/>
<feBlend mode="normal" in2="shape" result="effect1_innerShadow_1_7"/>
</filter>
<filter id="filter1_i_1_7" x="143.213" y="251.066" width="1939.45" height="365.816" filterUnits="userSpaceOnUse" color-interpolation-filters="sRGB">
<feFlood flood-opacity="0" result="BackgroundImageFix"/>
<feBlend mode="normal" in="SourceGraphic" in2="BackgroundImageFix" result="shape"/>
<feColorMatrix in="SourceAlpha" type="matrix" values="0 0 0 0 0 0 0 0 0 0 0 0 0 0 0 0 0 0 127 0" result="hardAlpha"/>
<feOffset dy="4"/>
<feGaussianBlur stdDeviation="2"/>
<feComposite in2="hardAlpha" operator="arithmetic" k2="-1" k3="1"/>
<feColorMatrix type="matrix" values="0 0 0 0 0 0 0 0 0 0 0 0 0 0 0 0 0 0 0.25 0"/>
<feBlend mode="normal" in2="shape" result="effect1_innerShadow_1_7"/>
</filter>
<clipPath id="clip0_1_7">
<rect width="2200" height="828" fill="white"/>
</clipPath>
<clipPath id="clip1_1_7">
<rect width="2200" height="828" fill="white"/>
</clipPath>
</defs>
</svg>
